<?xml version="1.0" encoding="utf-8"?>
<!-- Generator: Adobe Illustrator 16.0.0, SVG Export Plug-In . SVG Version: 6.00 Build 0)  -->
<!DOCTYPE svg PUBLIC "-//W3C//DTD SVG 1.1//EN" "http://www.w3.org/Graphics/SVG/1.1/DTD/svg11.dtd">
<svg version="1.1" xmlns="http://www.w3.org/2000/svg" xmlns:xlink="http://www.w3.org/1999/xlink" x="0px" y="0px"
	 width="140.782px" height="208.667px" viewBox="0 0 140.782 208.667" enable-background="new 0 0 140.782 208.667"
	 xml:space="preserve">
<g id="Background" display="none">
	<rect x="-333.906" y="-283.833" display="inline" fill="#F4EDE9" width="800" height="800"/>
</g>
<g id="Objects">
	<g>
		<g>
			<path fill="#E8E2DD" d="M78.718,196.464"/>
			<g>
				<g>
					<line fill="#936241" x1="58.785" y1="205.63" x2="61.569" y2="195.804"/>
					<path fill="#542C11" d="M58.273,200.362c-0.769,2.714-0.54,5.072,0.512,5.269c1.052,0.196,2.527-1.845,3.296-4.558
						c0.769-2.714,0.54-5.072-0.512-5.269C60.518,195.608,59.042,197.649,58.273,200.362z"/>
				</g>
				<g>
					<path fill="#936241" d="M18.489,198.547"/>
				</g>
			</g>
			<g>
				<g>
					<path fill="#D83912" d="M137.923,139.764C121.919,84.639,80.131,66.856,104.137,2.841c0,0-57.794,36.453-73.796,101.358
						c-1.375,5.58-2.427,10.897-3.19,15.964c-11.923-19.746-16.37-39.081-16.37-39.081s-48.012,137.813,63.127,124.476
						C98.643,205.558,153.927,194.889,137.923,139.764z"/>
					<g>
						<path fill="#D83912" d="M137.923,137.171c-6.682-22.568-19.715-41.428-30.378-62.108c-4.646-9.011-8.404-18.5-9.899-28.575
							c-2.069-13.947,1.693-28.032,6.491-41.055c0.305-0.827-0.593-4.809,0-5.184c-8.903,5.637-17.048,12.77-24.622,20.045
							c-17.06,16.388-31.524,35.779-41.051,57.5c-2.762,6.297-5.098,12.78-6.959,19.399c-1.086,3.86-2.007,7.771-2.81,11.7
							c-0.357,1.749-0.69,3.504-0.993,5.263c0.049-0.285-0.517,3.414-0.552,3.415c-0.306,0.016-1.768-3.017-1.971-3.377
							c-4.021-7.124-7.409-14.607-10.221-22.287c-0.945-2.582-1.825-5.188-2.627-7.818c-0.371-1.216-0.525-3.689-1.321-4.669
							c-0.834-1.027,0.261-0.989-0.422-0.36c-0.451,0.415-0.65,2.012-0.828,2.584c-1.102,3.547-2.09,7.13-2.998,10.731
							c-5.953,23.603-9.402,50.118-3.98,74.155c2.949,13.073,9.477,25.389,20.767,33.062c15.661,10.645,33.7,9.257,51.642,8.55
							c15.898-0.627,32.383-3.484,46.002-12.216c7.257-4.652,13.323-11.108,16.608-19.152c2.97-7.271,3.238-15.116,2.959-22.863
							C140.555,148.217,139.463,142.644,137.923,137.171c0.447,1.591-0.453,3.573,0,5.185c2.958,10.515,3.865,20.825-0.874,30.951
							c-3.407,7.278-9.14,13.124-15.856,17.434c-12.674,8.131-28.401,11.508-43.289,12.138c-16.795,0.711-33.564,2.484-49.145-5.406
							c-11.522-5.835-19.508-16.129-23.724-28.198c-8.158-23.354-3.998-49.533,2.032-72.911c0.836-3.24,1.737-6.465,2.732-9.66
							c0.187-0.601,0.338-1.939,0.77-2.401c0.589-0.63-0.24-0.608,0.312-0.213c0.433,0.31,0.688,2.588,0.833,3.1
							c0.653,2.285,1.374,4.552,2.144,6.8c2.292,6.696,5.033,13.244,8.218,19.564c0.847,1.679,1.725,3.342,2.638,4.986
							c0.45,0.811,0.866,1.792,1.433,2.526c0.952,1.23,0.32,1.953,1.136,0.842c0.817-1.112,0.771-4.565,1.06-6.056
							c0.408-2.106,0.858-4.204,1.34-6.293c1.561-6.757,3.549-13.402,6.031-19.88c8.231-21.482,21.35-40.873,37.149-57.509
							c9.156-9.641,19.327-17.451,29.664-25.667c0.498-0.396,1.072-0.729,1.61-1.069c0-1.728,0-3.456,0-5.184
							c-8.461,22.966-10.524,47.941-0.891,70.877c4.715,11.223,11.292,21.538,17.301,32.086
							c7.107,12.477,13.29,25.343,17.376,39.144C137.456,140.778,138.396,138.77,137.923,137.171z"/>
					</g>
				</g>
				<g>
					<path fill="#FA8900" d="M72.671,203.558l0.616-0.073h0.619c28.96,0,45.588-11.855,50.85-18.862
						c6.302-8.391,7.352-19.405,3.209-33.673c-5.068-17.457-12.961-31.004-20.593-44.105C95.531,86.522,84.187,67.046,86.857,38.587
						c-16.756,16.1-38.008,42.151-46.449,76.389c-1.264,5.127-2.275,10.183-3.005,15.027l-4.28,28.406l-14.849-24.592
						c-1.942-3.216-3.697-6.416-5.279-9.535c-0.371,2.306-0.71,4.681-1.004,7.105c-2.221,18.295-2.313,43.275,9.863,58.389
						C31.544,201.804,48.639,206.441,72.671,203.558z"/>
					<g>
						<path fill="#FA8900" d="M72.671,206.151c6.79-0.815,13.518-0.547,20.288-1.962c6.534-1.365,12.94-3.52,18.831-6.683
							c9.214-4.948,16.505-12.124,18.22-22.867c4.583-28.721-14.555-55.741-27.851-79.443C92.879,78.652,85.23,60.55,86.857,41.18
							c0.076-0.906-0.553-4.649,0-5.184C69.238,53.022,54.389,73.252,45.516,96.214c-6.837,17.694-8.919,36.543-11.725,55.166
							c-0.104,0.69-0.474,4.307-0.758,4.29c-0.746-0.043-3.294-5.455-3.688-6.106c-3.575-5.922-7.164-11.835-10.726-17.765
							c-0.91-1.515-1.809-3.037-2.673-4.579c-0.638-1.139-1.522-4.007-2.549-4.746c-1.113-0.802-0.242-0.502-0.675,0.959
							c-0.326,1.103-0.353,2.415-0.503,3.555c-0.759,5.757-1.233,11.549-1.361,17.354c-0.195,8.902-0.058,17.895,1.714,26.649
							c2.48,12.261,8.399,23.825,19.681,30.037C44.443,207.739,59.228,207.671,72.671,206.151c0.23-0.026-0.153-5.167,0-5.185
							c-21.405,2.421-45.756-0.322-55.93-22.084c-5.49-11.744-6.45-25.367-5.436-38.112c0.229-2.873,0.539-5.74,0.915-8.599
							c0.053-0.402,0.53-5.256,0.775-5.297c0.165-0.027,2.315,4.389,2.504,4.731c1.397,2.529,2.891,4.998,4.384,7.47
							c3.64,6.028,7.28,12.056,10.919,18.084c0.198,0.328,2.088,3.889,2.32,3.843c0.255-0.052,0.729-4.844,0.781-5.187
							c2.6-17.256,4.522-34.774,10.447-51.291c8.694-24.234,24.091-45.549,42.506-63.345c0-1.728,0-3.456,0-5.184
							c-1.009,12.014-0.553,24.296,2.739,35.943c4.227,14.954,12.438,28.239,20.148,41.582
							c8.651,14.971,17.495,31.204,20.132,48.521c1.825,11.984-4.751,21.943-14.484,28.171c-5.771,3.693-12.244,6.262-18.864,7.966
							c-7.969,2.051-15.804,1.821-23.857,2.788C72.43,200.995,72.837,206.13,72.671,206.151z"/>
					</g>
				</g>
				<g>
					<path fill="#FFE016" d="M83.84,201.513l-0.375,0.021l-0.369,0.065c-17.266,3.052-28.429-2.264-32.304-5.887
						c-4.641-4.339-6.428-10.795-5.462-19.737c1.182-10.941,4.46-19.851,7.63-28.465c4.917-13.364,9.629-26.171,5.038-42.856
						c11.686,7.833,27.102,21.125,35.743,40.647c1.294,2.924,2.43,5.831,3.375,8.643l5.545,16.484l6.262-16.227
						c0.819-2.122,1.528-4.214,2.143-6.241c0.464,1.336,0.916,2.716,1.348,4.131c3.252,10.673,5.939,25.557,0.272,35.851
						C108.175,196.133,98.472,200.699,83.84,201.513z"/>
					<g>
						<path fill="#FFE016" d="M83.84,198.92c-10.023,0.557-19.446,1.941-28.794-2.923c-11.241-5.851-10.39-17.777-7.716-28.567
							c3.155-12.728,9.448-24.552,11.709-37.512c1.583-9.066,1.24-18.976-1.042-27.857c0,1.728,0,3.457,0,5.185
							c11.079,7.5,21.064,16.704,28.603,27.814c6.488,9.563,10.103,20.25,13.748,31.086c0.593,1.764,1.06,3.685,1.812,5.388
							c0.488,1.105,0.11,1.359,0.657,1.081c0.646-0.329,1.383-3.584,1.625-4.212c0.847-2.193,1.692-4.387,2.539-6.58
							c0.575-1.49,1.156-2.979,1.726-4.473c0.172-0.449,0.345-0.897,0.512-1.349c0.292-0.785,0.58-1.571,0.852-2.363
							c0.265-0.769,0.517-1.542,0.755-2.319c0.144-0.991,0.301-1.021,0.469-0.091c1.687,1.71,2.299,7.536,2.834,9.849
							c1.064,4.604,2.111,9.587,1.576,14.313C113.793,192.283,98.907,197.921,83.84,198.92c-0.152,0.011,0.074,5.18,0,5.185
							c14.799-0.981,29.415-6.34,31.757-22.772c0.602-4.219,0.521-8.63,0.337-12.882c-0.16-3.721-0.698-7.413-1.472-11.054
							c-0.27-1.27-2.293-11.915-3.397-12.028c-0.063-0.007-4.267,11.745-4.754,13.008c-0.287,0.745-3.307,9.456-3.672,9.394
							c-0.968-0.167-3.413-10.146-3.805-11.31c-1.828-5.436-3.659-10.85-6.151-16.031c-7.614-15.825-20.261-28.602-34.685-38.368
							c0.544,0.369-0.204,4.394,0,5.185c2.023,7.873,1.908,14.962-0.121,22.827c-1.561,6.047-3.849,11.868-5.975,17.729
							c-3.922,10.817-6.881,21.718-6.85,33.288c0.022,8.135,1.998,15.771,9.608,19.885c9.416,5.09,19.016,3.694,29.179,3.13
							C83.974,204.098,83.783,198.924,83.84,198.92z"/>
					</g>
				</g>
			</g>
		</g>
	</g>
</g>
<g id="Designed_by_Freepik">
</g>
</svg>
